<?xml version="1.0" encoding="utf-8"?>
<!-- Generator: Adobe Illustrator 19.0.0, SVG Export Plug-In . SVG Version: 6.00 Build 0)  -->
<svg version="1.1" id="Capa_1" xmlns="http://www.w3.org/2000/svg" xmlns:xlink="http://www.w3.org/1999/xlink" x="0px" y="0px"
	 viewBox="-49 141 512 512" style="enable-background:new -49 141 512 512;" xml:space="preserve">
<style type="text/css">
	.st0{fill:#C8C5C9;}
	.st1{fill:#ECF4FF;}
	.st2{fill:#B6B1B7;}
	.st3{fill:#DDEAFB;}
	.st4{fill:#BED8FB;}
	.st5{fill:#A4CCFF;}
</style>
<g>
	<g>
		<path class="st0" d="M356.1,181.6c0-18.3-14.8-33.1-33.1-33.1H91c-18.3,0-33.1,14.8-33.1,33.1v430.7c0,18.3,14.8,33.1,33.1,33.1
			H323c18.3,0,33.1-14.8,33.1-33.1V181.6z"/>
		<path class="st1" d="M256.7,459.3V232.2c0-27.3-21.6-50.1-48.8-50.5c-27.8-0.5-50.6,22-50.6,49.7v227.9c0,2.5-1.1,4.8-3,6.4
			c-18.6,15.4-30.4,38.7-30.1,64.8c0.5,44.4,36.5,80.8,80.8,81.9c46.7,1.1,84.8-36.4,84.8-82.8c0-25.7-11.7-48.7-30.1-63.9
			C257.8,464.1,256.7,461.7,256.7,459.3z"/>
		<circle class="st1" cx="306.4" cy="413.6" r="16.6"/>
		<path class="st2" d="M356.1,181.6c0-18.3-14.8-33.1-33.1-33.1h-23c18.3,0,33.1,14.8,33.1,33.1v430.7c0,18.3-14.8,33.1-33.1,33.1
			h23c18.3,0,33.1-14.8,33.1-33.1L356.1,181.6z"/>
		<path class="st3" d="M259.7,465.7c-1.9-1.6-3-3.9-3-6.4V232.2c0-27.3-21.6-50.1-48.8-50.5c-4.3-0.1-8.5,0.4-12.4,1.4
			c22,5.3,38.2,25.6,38.2,49.2v227.1c0,2.5,1.1,4.8,3,6.4c18.4,15.2,30.1,38.2,30.1,63.9c0,41.8-31,76.4-71.3,82
			c3.1,0.4,6.3,0.7,9.5,0.8c46.7,1.1,84.8-36.4,84.8-82.8C289.8,503.8,278.1,480.9,259.7,465.7L259.7,465.7z"/>
		<g>
			<path class="st4" d="M223.6,477.2v-38.7c0-4.6-3.7-8.3-8.3-8.3h-16.6c-4.6,0-8.3,3.7-8.3,8.3v38.7c0,3.2-1.8,6.1-4.7,7.5
				c-17.6,8.3-29.6,26.7-28.4,47.8c1.4,25.4,22.2,45.8,47.6,46.8c28.4,1.1,51.7-21.5,51.7-49.7c0-19.8-11.6-36.9-28.3-44.9
				C225.4,483.3,223.6,480.4,223.6,477.2L223.6,477.2z"/>
			<path class="st5" d="M228.4,484.7c-2.9-1.4-4.8-4.3-4.8-7.5v-38.7c0-4.6-3.7-8.3-8.3-8.3h-16.6c-1.1,0-2.2,0.2-3.2,0.6
				c3,1.3,5.1,4.2,5.1,7.6v38.7c0,3.2,1.9,6.1,4.8,7.5c16.8,8,28.3,25.1,28.3,44.9c0,23.5-16.3,43.2-38.2,48.3
				c3.1,0.7,6.2,1.2,9.5,1.3c28.4,1.1,51.7-21.5,51.7-49.7C256.7,509.7,245.1,492.6,228.4,484.7L228.4,484.7z"/>
		</g>
		<path d="M204.8,619.8c0.7,0,1.5,0,2.2,0c23.7,0,46.1-9.1,63.1-25.7c17.6-17.1,27.2-40.1,27.2-64.6c0-27-12-52.4-32.8-69.7
			c-0.2-0.2-0.3-0.4-0.3-0.6V232.2c0-31.5-25.2-57.5-56.2-58c-15.5-0.2-30.1,5.6-41.1,16.4c-11,10.8-17.1,25.3-17.1,40.8v51.3
			c0,4.1,3.4,7.5,7.5,7.5s7.5-3.4,7.5-7.5v-51.3c0-11.4,4.5-22.1,12.6-30.1c8.1-8,18.9-12.3,30.3-12.1c22.9,0.4,41.5,19.7,41.5,43
			v227.1c0,4.7,2.1,9.2,5.8,12.2c17.4,14.4,27.4,35.6,27.4,58.1c0,20.5-8.1,39.6-22.7,53.9c-14.6,14.3-34,21.9-54.5,21.4
			c-40.1-0.9-73.1-34.3-73.5-74.5c-0.3-22.9,9.7-44.4,27.4-58.9c3.7-3,5.8-7.5,5.8-12.2V312.5c0-4.1-3.4-7.5-7.5-7.5
			s-7.5,3.4-7.5,7.5v146.8c0,0.2-0.1,0.5-0.3,0.6c-21.2,17.5-33.1,43.2-32.8,70.7c0.3,23.4,9.5,45.6,26.1,62.4
			C159.4,609.7,181.4,619.3,204.8,619.8L204.8,619.8z"/>
		<path d="M215.3,422.6h-16.6c-8.7,0-15.8,7.1-15.8,15.8v38.7c0,0.3-0.2,0.6-0.4,0.7c-21.2,10-34,31.6-32.7,55
			c1.6,29.1,25.7,52.8,54.8,53.9c0.8,0,1.5,0,2.3,0c14.9,0,28.9-5.6,39.6-16c11.3-10.9,17.6-25.5,17.6-41.2
			c0-21.9-12.8-42.2-32.6-51.7c-0.3-0.1-0.5-0.4-0.5-0.7v-38.7C231.1,429.7,224,422.6,215.3,422.6z M249.2,529.5
			c0,11.6-4.6,22.4-13,30.4c-8.3,8-19.3,12.2-30.9,11.7c-21.5-0.8-39.2-18.3-40.4-39.8c-1-17.3,8.5-33.2,24.1-40.6
			c5.4-2.6,8.9-8.2,8.9-14.3v-38.7c0-0.4,0.4-0.8,0.8-0.8h16.6c0.4,0,0.8,0.4,0.8,0.8v38.7c0,6,3.6,11.6,9.1,14.3
			C239.8,498.4,249.2,513.4,249.2,529.5L249.2,529.5z"/>
		<path d="M91,238.8h33.1c4.1,0,7.5-3.4,7.5-7.5s-3.4-7.5-7.5-7.5H91c-4.1,0-7.5,3.4-7.5,7.5S86.9,238.8,91,238.8z"/>
		<path d="M91,338.2h33.1c4.1,0,7.5-3.4,7.5-7.5s-3.4-7.5-7.5-7.5H91c-4.1,0-7.5,3.4-7.5,7.5S86.9,338.2,91,338.2z"/>
		<path d="M91,272h16.6c4.1,0,7.5-3.4,7.5-7.5s-3.4-7.5-7.5-7.5H91c-4.1,0-7.5,3.4-7.5,7.5S86.9,272,91,272z"/>
		<path d="M91,305.1h16.6c4.1,0,7.5-3.4,7.5-7.5s-3.4-7.5-7.5-7.5H91c-4.1,0-7.5,3.4-7.5,7.5S86.9,305.1,91,305.1z"/>
		<path d="M91,437.6h33.1c4.1,0,7.5-3.4,7.5-7.5s-3.4-7.5-7.5-7.5H91c-4.1,0-7.5,3.4-7.5,7.5S86.9,437.6,91,437.6z"/>
		<path d="M91,371.4h16.6c4.1,0,7.5-3.4,7.5-7.5s-3.4-7.5-7.5-7.5H91c-4.1,0-7.5,3.4-7.5,7.5S86.9,371.4,91,371.4z"/>
		<path d="M91,404.5h16.6c4.1,0,7.5-3.4,7.5-7.5s-3.4-7.5-7.5-7.5H91c-4.1,0-7.5,3.4-7.5,7.5S86.9,404.5,91,404.5z"/>
		<path d="M330.5,413.6c0-13.3-10.8-24.1-24.1-24.1s-24.1,10.8-24.1,24.1s10.8,24.1,24.1,24.1S330.5,426.8,330.5,413.6z
			 M297.3,413.6c0-5,4.1-9.1,9.1-9.1c5,0,9.1,4.1,9.1,9.1c0,5-4.1,9.1-9.1,9.1C301.4,422.6,297.3,418.6,297.3,413.6z"/>
	</g>
	<g>
		<path d="M323,653H91c-22.4,0-40.6-18.2-40.6-40.6V181.6c0-22.4,18.2-40.6,40.6-40.6H323c22.4,0,40.6,18.2,40.6,40.6v430.7
			C363.6,634.8,345.4,653,323,653z M91,156c-14.1,0-25.6,11.5-25.6,25.6v430.7c0,14.1,11.5,25.6,25.6,25.6H323
			c14.1,0,25.6-11.5,25.6-25.6V181.6c0-14.1-11.5-25.6-25.6-25.6H91z"/>
	</g>
</g>
</svg>
