<?xml version="1.0" encoding="utf-8"?>
<!-- Generator: Adobe Illustrator 19.0.0, SVG Export Plug-In . SVG Version: 6.00 Build 0)  -->
<svg version="1.1" id="Capa_1" xmlns="http://www.w3.org/2000/svg" xmlns:xlink="http://www.w3.org/1999/xlink" x="0px" y="0px"
	 viewBox="-49 141 512 512" style="enable-background:new -49 141 512 512;" xml:space="preserve">
<style type="text/css">
	.st0{fill:#57A4FF;}
	.st1{fill:#006DF0;}
	.st2{fill:#FFCD00;}
	.st3{fill:#DDB200;}
	.st4{fill:#FFC477;}
	.st5{fill:#FFA733;}
	.st6{fill:#BDFDFF;}
	.st7{fill:#A8E561;}
	.st8{fill:#92BC5B;}
	.st9{fill:#B6EB92;}
	.st10{fill:#FFDE55;}
	.st11{fill:#5EAC24;}
	.st12{fill:#EBBF00;}
	.st13{fill:#F1F2F2;}
</style>
<g id="thermometer-check-temperature-healthy-pass">
	<path class="st0" d="M439,533v96H231v-80c0-17.7,14.3-32,32-32h160C431.8,517,439,524.2,439,533z"/>
	<path class="st1" d="M439,533v96h-32v-96c0-8.8-7.2-16-16-16h32C431.8,517,439,524.2,439,533z"/>
	<path class="st2" d="M439,197v160c0,8.8-7.2,16-16,16h-20.4c-7.5,0-14.7-2.6-20.5-7.4L343,333h16c8.8,0,16-7.2,16-16v-16
		c0-8.8-7.2-16-16-16h-16v-72H191c-13.3,0-24-10.7-24-24s10.7-24,24-24h216C424.7,165,439,179.3,439,197z"/>
	<path class="st3" d="M439,197v160c0,8.8-7.2,16-16,16h-20.4c-2.3,0-4.6-0.3-6.8-0.8c6.7-2.1,11.2-8.2,11.2-15.2V197
		c0-17.7-14.3-32-32-32h32C424.7,165,439,179.3,439,197L439,197z"/>
	<path class="st4" d="M415,373v144H303v-32c0-8.8-7.2-16-16-16h-16l72-136l39.1,32.6c5.7,4.8,13,7.4,20.5,7.4H415z"/>
	<path class="st5" d="M415,373v144h-32V366.2c5.6,4.4,12.5,6.8,19.6,6.8H415z"/>
	<path class="st4" d="M375,301v16c0,8.8-7.2,16-16,16h-16l-32,60.5v-98.4l32-10.1h16C367.8,285,375,292.2,375,301L375,301z"/>
	<path class="st4" d="M343,213v72l-32,10.1L191,333l24-40v-80H343z"/>
	<path class="st6" d="M311,295.1v98.4L271,469h-31.3c-15.1,0-29-8.5-35.8-22.1L167,373l24-40L311,295.1z"/>
	<circle class="st7" cx="63" cy="541" r="88"/>
	<path class="st8" d="M151,541c-0.1,48.7-39.6,88.1-88.3,88c-5.3,0-10.5-0.5-15.7-1.4c47.8-8.8,79.5-54.6,70.7-102.4
		c-6.6-36-34.7-64.1-70.7-70.7c47.9-8.8,93.8,23,102.6,70.8C150.5,530.5,151,535.7,151,541z"/>
	<path class="st9" d="M103,261v16c0,8.8-7.2,16-16,16H71v-48h16C95.8,245,103,252.2,103,261z"/>
	<path class="st10" d="M55,341h32v48H55V341z"/>
	<path class="st11" d="M103,261v16c0,8.8-7.2,16-16,16H71c8.8,0,16-7.2,16-16v-16c0-8.8-7.2-16-16-16h16C95.8,245,103,252.2,103,261
		z"/>
	<path class="st12" d="M71,341h16v48H71V341z"/>
	<path class="st13" d="M71,293v16H23v-64c0-8.8,7.2-16,16-16h32V293z"/>
	<path class="st13" d="M55,389v32H23V309h32v32V389z"/>
	<path d="M447,357V197c0-22.1-17.9-40-40-40H191c-17.7,0-32,14.3-32,32s14.3,32,32,32h16v69.8l-46.9,78.2c-1.4,2.3-1.5,5.2-0.2,7.7
		l36.9,73.9c8.2,16.2,24.8,26.4,43,26.5H287c4.4,0,8,3.6,8,8v24h-32c-22.1,0-40,17.9-40,40v80c0,4.4,3.6,8,8,8h208c4.4,0,8-3.6,8-8
		v-96c0-13.2-10.8-24-24-24V381C436.2,381,447,370.2,447,357L447,357z M239.7,461c-12.1,0-23.2-6.9-28.6-17.7l-35-70l20.2-33.6
		L303,306v85.4L266.2,461H239.7z M335,279.2L208.8,319l13.1-21.9c0.7-1.2,1.1-2.6,1.1-4.1v-72h112V279.2z M344.2,293H359
		c4.4,0,8,3.6,8,8v16c0,4.4-3.6,8-8,8h-16c-2.9,0-5.6,1.7-7,4.3l-0.1-0.1l-17,32V301L344.2,293z M287,461h-2.7l61.2-115.5l31.5,26.2
		c7.2,6,16.2,9.3,25.6,9.3h4.4v128h-96v-24C311,471.8,300.2,461,287,461z M431,533v88H239v-72c0-13.2,10.8-24,24-24h160
		C427.4,525,431,528.6,431,533z M402.6,365c-5.6,0-11.1-2-15.4-5.6l-22.9-19c10.9-2.5,18.6-12.2,18.6-23.4v-16c0-13.2-10.8-24-24-24
		h-8v-64c0-4.4-3.6-8-8-8H191c-8.8,0-16-7.2-16-16s7.2-16,16-16h216c13.2,0,24,10.8,24,24v160c0,4.4-3.6,8-8,8H402.6z"/>
	<path d="M87,237h-8v-8c0-4.4-3.6-8-8-8H39c-13.2,0-24,10.8-24,24v176c0,4.4,3.6,8,8,8h32c4.4,0,8-3.6,8-8v-24h24c4.4,0,8-3.6,8-8
		v-48c0-4.4-3.6-8-8-8H63v-16h8c4.4,0,8-3.6,8-8v-8h8c13.2,0,24-10.8,24-24v-16C111,247.8,100.2,237,87,237z M47,413H31v-96h16V413z
		 M79,349v32H63v-32H79z M63,301H31v-56c0-4.4,3.6-8,8-8h24V301z M95,277c0,4.4-3.6,8-8,8h-8v-32h8c4.4,0,8,3.6,8,8V277z"/>
	<path d="M127,261h32v16h-32V261z"/>
	<path d="M123.3,237.8l32-16l7.2,14.3l-32,16L123.3,237.8z"/>
	<path d="M123.3,300.2l7.2-14.3l32,16l-7.2,14.3L123.3,300.2z"/>
	<path d="M63,445c-53,0-96,43-96,96s43,96,96,96s96-43,96-96C159,488,116,445,63,445z M63,621c-44.2,0-80-35.8-80-80s35.8-80,80-80
		s80,35.8,80,80C142.9,585.2,107.2,620.9,63,621z"/>
	<path d="M55,561.7l-26.3-26.3l-11.3,11.3l32,32c3.1,3.1,8.2,3.1,11.3,0l64-64l-11.3-11.3L55,561.7z"/>
	<path d="M271,261c8.8,0,16,7.2,16,16h16c0-17.7-14.3-32-32-32s-32,14.3-32,32h16C255,268.2,262.2,261,271,261z"/>
</g>
</svg>
